<svg width="35" height="35" viewBox="0 0 35 35" fill="none" xmlns="http://www.w3.org/2000/svg">
<circle cx="17.1299" cy="17.4717" r="16.9092" fill="#FE9800"/>
<path d="M17.1299 12.4717C15.8038 12.4717 14.532 12.9985 13.5943 13.9362C12.6567 14.8739 12.1299 16.1457 12.1299 17.4717C12.1299 18.7978 12.6567 20.0696 13.5943 21.0073C14.532 21.945 15.8038 22.4717 17.1299 22.4717C18.456 22.4717 19.7277 21.945 20.6654 21.0073C21.6031 20.0696 22.1299 18.7978 22.1299 17.4717C22.1299 16.1457 21.6031 14.8739 20.6654 13.9362C19.7277 12.9985 18.456 12.4717 17.1299 12.4717Z" fill="white"/>
<path fill-rule="evenodd" clip-rule="evenodd" d="M17.1299 6.47174C17.3951 6.47174 17.6495 6.5771 17.837 6.76463C18.0245 6.95217 18.1299 7.20652 18.1299 7.47174V8.47174C18.1299 8.73696 18.0245 8.99131 17.837 9.17885C17.6495 9.36638 17.3951 9.47174 17.1299 9.47174C16.8647 9.47174 16.6103 9.36638 16.4228 9.17885C16.2352 8.99131 16.1299 8.73696 16.1299 8.47174V7.47174C16.1299 7.20652 16.2352 6.95217 16.4228 6.76463C16.6103 6.5771 16.8647 6.47174 17.1299 6.47174ZM8.42288 8.76474C8.61041 8.57727 8.86472 8.47195 9.12988 8.47195C9.39505 8.47195 9.64935 8.57727 9.83688 8.76474L11.3369 10.2647C11.519 10.4533 11.6198 10.7059 11.6176 10.9681C11.6153 11.2303 11.5101 11.4812 11.3247 11.6666C11.1393 11.852 10.8885 11.9571 10.6263 11.9594C10.3641 11.9617 10.1115 11.8609 9.92288 11.6787L8.42288 10.1787C8.23541 9.99121 8.1301 9.7369 8.1301 9.47174C8.1301 9.20658 8.23541 8.95227 8.42288 8.76474ZM25.8369 8.76474C26.0244 8.95227 26.1297 9.20658 26.1297 9.47174C26.1297 9.7369 26.0244 9.99121 25.8369 10.1787L24.3369 11.6787C24.2446 11.7743 24.1343 11.8504 24.0123 11.9028C23.8903 11.9553 23.7591 11.9828 23.6263 11.984C23.4935 11.9851 23.3618 11.9598 23.2389 11.9096C23.116 11.8593 23.0044 11.785 22.9105 11.6911C22.8166 11.5972 22.7423 11.4856 22.6921 11.3627C22.6418 11.2398 22.6165 11.1081 22.6176 10.9753C22.6188 10.8426 22.6464 10.7113 22.6988 10.5893C22.7512 10.4673 22.8274 10.357 22.9229 10.2647L24.4229 8.76474C24.6104 8.57727 24.8647 8.47195 25.1299 8.47195C25.395 8.47195 25.6494 8.57727 25.8369 8.76474ZM6.12988 17.4717C6.12988 17.2065 6.23524 16.9522 6.42278 16.7646C6.61031 16.5771 6.86467 16.4717 7.12988 16.4717H8.12988C8.3951 16.4717 8.64945 16.5771 8.83699 16.7646C9.02453 16.9522 9.12988 17.2065 9.12988 17.4717C9.12988 17.737 9.02453 17.9913 8.83699 18.1788C8.64945 18.3664 8.3951 18.4717 8.12988 18.4717H7.12988C6.86467 18.4717 6.61031 18.3664 6.42278 18.1788C6.23524 17.9913 6.12988 17.737 6.12988 17.4717ZM25.1299 17.4717C25.1299 17.2065 25.2352 16.9522 25.4228 16.7646C25.6103 16.5771 25.8647 16.4717 26.1299 16.4717H27.1299C27.3951 16.4717 27.6495 16.5771 27.837 16.7646C28.0245 16.9522 28.1299 17.2065 28.1299 17.4717C28.1299 17.737 28.0245 17.9913 27.837 18.1788C27.6495 18.3664 27.3951 18.4717 27.1299 18.4717H26.1299C25.8647 18.4717 25.6103 18.3664 25.4228 18.1788C25.2352 17.9913 25.1299 17.737 25.1299 17.4717ZM11.3369 23.2647C11.5244 23.4523 11.6297 23.7066 11.6297 23.9717C11.6297 24.2369 11.5244 24.4912 11.3369 24.6787L9.83688 26.1787C9.64828 26.3609 9.39568 26.4617 9.13348 26.4594C8.87128 26.4571 8.62047 26.352 8.43506 26.1666C8.24966 25.9812 8.14449 25.7303 8.14221 25.4681C8.13993 25.2059 8.24072 24.9533 8.42288 24.7647L9.92288 23.2647C10.1104 23.0773 10.3647 22.972 10.6299 22.972C10.895 22.972 11.1494 23.0773 11.3369 23.2647ZM22.9229 23.2647C23.1104 23.0773 23.3647 22.972 23.6299 22.972C23.895 22.972 24.1494 23.0773 24.3369 23.2647L25.8369 24.7647C26.019 24.9533 26.1198 25.2059 26.1176 25.4681C26.1153 25.7303 26.0101 25.9812 25.8247 26.1666C25.6393 26.352 25.3885 26.4571 25.1263 26.4594C24.8641 26.4617 24.6115 26.3609 24.4229 26.1787L22.9229 24.6787C22.7354 24.4912 22.6301 24.2369 22.6301 23.9717C22.6301 23.7066 22.7354 23.4523 22.9229 23.2647ZM17.1299 25.4717C17.3951 25.4717 17.6495 25.5771 17.837 25.7646C18.0245 25.9522 18.1299 26.2065 18.1299 26.4717V27.4717C18.1299 27.737 18.0245 27.9913 17.837 28.1788C17.6495 28.3664 17.3951 28.4717 17.1299 28.4717C16.8647 28.4717 16.6103 28.3664 16.4228 28.1788C16.2352 27.9913 16.1299 27.737 16.1299 27.4717V26.4717C16.1299 26.2065 16.2352 25.9522 16.4228 25.7646C16.6103 25.5771 16.8647 25.4717 17.1299 25.4717Z" fill="white"/>
</svg>
