<svg width="24" height="25" viewBox="0 0 24 25" fill="none" xmlns="http://www.w3.org/2000/svg">
<path d="M12.92 0.118286H12.2996H12.0266C8.80021 0.262967 5.75864 1.66477 3.55278 4.02369C1.34691 6.38262 0.151998 9.51125 0.223758 12.7401C0.295518 15.9689 1.62825 19.0413 3.93674 21.2999C6.24523 23.5585 9.34608 24.8238 12.5757 24.825C12.6936 24.825 12.8084 24.825 12.9262 24.825V21.4125C15.6871 21.3182 18.3034 20.1552 20.2232 18.1688C22.1429 16.1823 23.216 13.5279 23.216 10.7654C23.216 8.00289 22.1429 5.34843 20.2232 3.36201C18.3034 1.37559 15.6871 0.212555 12.9262 0.118286H12.92ZM12.9666 16.7032C11.9794 16.7347 11.0108 16.9795 10.1272 17.4207C9.24362 17.862 8.46601 18.4893 7.84778 19.2595C6.47542 18.2451 5.45102 16.8304 4.91548 15.21C4.37993 13.5897 4.35953 11.8432 4.85708 10.2107C5.35463 8.57831 6.3457 7.1401 7.694 6.09391C9.04229 5.04773 10.6816 4.44494 12.3864 4.36844H12.5354H12.9666C14.5692 4.41927 16.0892 5.09163 17.2049 6.24327C18.3206 7.39491 18.9445 8.93546 18.9445 10.5389C18.9445 12.1424 18.3206 13.6829 17.2049 14.8345C16.0892 15.9862 14.5692 16.6586 12.9666 16.7094V16.7032Z" fill="#5445FF"/>
<path d="M12.3089 13.6537C11.8423 13.668 11.3844 13.7833 10.9666 13.9916C10.5489 14.2 10.1813 14.4964 9.88911 14.8605C9.24107 14.381 8.7574 13.7127 8.50456 12.9472C8.25171 12.1818 8.2421 11.3568 8.47705 10.5857C8.71199 9.81456 9.17995 9.13512 9.81664 8.64069C10.4533 8.14627 11.2275 7.86113 12.0328 7.82446H12.3089C13.059 7.85907 13.767 8.18144 14.2856 8.72453C14.8042 9.26763 15.0936 9.98969 15.0936 10.7406C15.0936 11.4916 14.8042 12.2136 14.2856 12.7567C13.767 13.2998 13.059 13.6222 12.3089 13.6568V13.6537Z" fill="#5445FF"/>
</svg>
